<svg xmlns="http://www.w3.org/2000/svg" width="32" height="32" viewBox="0 0 32 32" fill="none"><path d="M29.8836 6.146L16.7418 29.6457c-.2714.4851-.9684.488-1.2439.0052L2.0956 6.1482c-.3-.5262.1498-1.1635.746-1.057l13.156 2.3516c.1.0178.2023.0178.3022 0l12.8808-2.3484c.5942-.1083 1.0463.5241.7512 1.0513z" fill="url(#paint0_linear)"/><path d="M22.2644 2.0069l-9.7253 1.9056a.3772.3772 0 00-.3113.3746l-.2652 9.5672c-.0067.2419.2299.4171.4576.3428l2.7144-.8863c.2657-.0865.5094.1692.4374.4555l-.5933 2.3385c-.0739.2911.2167.5335.4835.4015l1.6744-.8262c.267-.1318.5577.1119.4843.4059l-.9737 3.9054c-.1074.4324.4909.6945.6837.2989l.1512-.3101 6.0401-12.0877c.1004-.2006-.0871-.4247-.2997-.3594l-2.7652.8452c-.2777.0848-.5266-.2007-.4149-.4742l2.5579-6.2746c.1115-.2738-.1373-.5608-.4165-.4767z" fill="url(#paint1_linear)"/><defs><linearGradient id="paint0_linear" x1="6.0002" y1="32.9999" x2="235" y2="-17.0001" gradientUnits="userSpaceOnUse"><stop stop-color="#41D1FF"/><stop offset="1" stop-color="#BD34FE"/></linearGradient><linearGradient id="paint1_linear" x1="194.651" y1="8.8182" x2="236.076" y2="292.989" gradientUnits="userSpaceOnUse"><stop stop-color="#FFEA83"/><stop offset=".0833" stop-color="#FFDD35"/><stop offset="1" stop-color="#FFA800"/></linearGradient></defs></svg>
